<svg width="24" height="13" viewBox="0 0 24 13" fill="none" xmlns="http://www.w3.org/2000/svg">
<path d="M1.01953 12.0625C0.777344 12.0625 0.570312 11.9766 0.398438 11.8047C0.226562 11.625 0.140625 11.4102 0.140625 11.1602C0.140625 10.918 0.226562 10.7109 0.398438 10.5391C0.570312 10.3672 0.777344 10.2812 1.01953 10.2812H22.957C23.1992 10.2812 23.4062 10.3672 23.5781 10.5391C23.7578 10.7109 23.8477 10.918 23.8477 11.1602C23.8477 11.4102 23.7578 11.625 23.5781 11.8047C23.4062 11.9766 23.1992 12.0625 22.957 12.0625H1.01953ZM1.01953 6.94141C0.777344 6.94141 0.570312 6.85547 0.398438 6.68359C0.226562 6.51172 0.140625 6.30469 0.140625 6.0625C0.140625 5.8125 0.226562 5.60156 0.398438 5.42969C0.570312 5.25 0.777344 5.16016 1.01953 5.16016H22.957C23.1992 5.16016 23.4062 5.25 23.5781 5.42969C23.7578 5.60156 23.8477 5.8125 23.8477 6.0625C23.8477 6.30469 23.7578 6.51172 23.5781 6.68359C23.4062 6.85547 23.1992 6.94141 22.957 6.94141H1.01953ZM1.01953 1.83203C0.777344 1.83203 0.570312 1.74609 0.398438 1.57422C0.226562 1.40234 0.140625 1.19531 0.140625 0.953125C0.140625 0.703125 0.226562 0.492188 0.398438 0.320312C0.570312 0.148438 0.777344 0.0625 1.01953 0.0625H22.957C23.1992 0.0625 23.4062 0.148438 23.5781 0.320312C23.7578 0.492188 23.8477 0.703125 23.8477 0.953125C23.8477 1.19531 23.7578 1.40234 23.5781 1.57422C23.4062 1.74609 23.1992 1.83203 22.957 1.83203H1.01953Z" fill="white"/>
</svg>
