<svg width="10" height="16" viewBox="0 0 10 16" fill="none" xmlns="http://www.w3.org/2000/svg">
<path d="M9.46191 8.00684C9.46191 8.17285 9.42871 8.33057 9.3623 8.47998C9.30143 8.62386 9.20182 8.76221 9.06348 8.89502L2.68018 15.1455C2.46436 15.3558 2.2015 15.4609 1.8916 15.4609C1.69238 15.4609 1.507 15.4111 1.33545 15.3115C1.1639 15.2119 1.02555 15.0791 0.92041 14.9131C0.820801 14.7471 0.770996 14.5589 0.770996 14.3486C0.770996 14.0443 0.887207 13.7731 1.11963 13.5352L6.80566 8.00684L1.11963 2.47852C0.887207 2.24609 0.770996 1.97493 0.770996 1.66504C0.770996 1.46029 0.820801 1.2749 0.92041 1.10889C1.02555 0.937337 1.1639 0.801758 1.33545 0.702148C1.507 0.602539 1.69238 0.552734 1.8916 0.552734C2.2015 0.552734 2.46436 0.657878 2.68018 0.868164L9.06348 7.11865C9.19629 7.25146 9.2959 7.38981 9.3623 7.53369C9.42871 7.67757 9.46191 7.83529 9.46191 8.00684Z" fill="white"/>
</svg>
